<?xml version="1.0" encoding="UTF-8"?>
<svg width="16px" height="16px" viewBox="0 0 16 16" version="1.1" xmlns="http://www.w3.org/2000/svg" xmlns:xlink="http://www.w3.org/1999/xlink">
    <!-- Generator: Sketch 49.2 (51160) - http://www.bohemiancoding.com/sketch -->
    <title>icon-confirm</title>
    <desc>Created with Sketch.</desc>
    <defs></defs>
    <g id="Symbols" stroke="none" stroke-width="1" fill="none" fill-rule="evenodd">
        <g id="icon-confirm" fill="#FFFFFF">
            <g id="Fill-1">
                <path d="M6.50825,12.539375 L2.3271875,8.3583125 L3.1225625,7.5629375 L6.50825,10.948625 L12.8729375,4.5839375 L13.6683125,5.3793125 L6.50825,12.539375 Z M8,0 C3.582,0 0,3.5815 0,8 C0,12.418 3.582,16 8,16 C12.4185,16 16,12.418 16,8 C16,3.5815 12.4185,0 8,0 L8,0 Z M8,1 C4.13425,1 1,4.1338125 1,8 C1,11.86575 4.13425,15 8,15 C11.8661875,15 15,11.86575 15,8 C15,4.1338125 11.8661875,1 8,1 L8,1 Z"></path>
            </g>
        </g>
    </g>
</svg>